<?xml version="1.0" standalone="no"?>
<!DOCTYPE svg PUBLIC "-//W3C//DTD SVG 20010904//EN"
 "http://www.w3.org/TR/2001/REC-SVG-20010904/DTD/svg10.dtd">
<svg version="1.0" xmlns="http://www.w3.org/2000/svg"
 width="500.000000pt" height="500.000000pt" viewBox="0 0 500.000000 500.000000"
 preserveAspectRatio="xMidYMid meet">
<metadata>
Created by potrace 1.11, written by Peter Selinger 2001-2013
</metadata>
<g transform="translate(0.000000,500.000000) scale(0.100000,-0.100000)"
fill="#000000" stroke="none">
<path d="M2437 4723 c-10 -2 -159 -86 -330 -185 -172 -99 -330 -190 -352 -203
-22 -12 -152 -88 -290 -167 -137 -79 -382 -221 -544 -314 -162 -93 -309 -184
-328 -203 -18 -19 -39 -54 -46 -77 -9 -32 -12 -288 -12 -1096 1 -1171 -4
-1087 68 -1155 18 -17 257 -160 532 -318 626 -361 740 -426 1050 -606 l250
-144 70 0 70 0 900 520 c495 286 914 532 931 548 70 60 66 -4 66 1168 -1 1147
2 1087 -56 1156 -15 18 -68 56 -119 84 -82 47 -500 288 -1416 817 -296 171
-307 176 -365 178 -34 2 -69 0 -79 -3z"/>
</g>
</svg>
